# File created by Blade
# Date/Time:  Wed Apr 08 17:04:22 2015
# Frame Rate: 120.000 fps
#------------------------------------------------------
:FULLY-SPECIFIED
:DEGREES
1627
root 3.530251 36.051368 4.151250 -126.575699 -83.906176 156.777733
Spine -31.483684 -14.623906 -2.044343
Head 38.767379 -10.888291 -9.866249
LeftShoulder 7.890755 3.175982 25.368061
LeftArm 103.351996 42.152367 -38.963580
LeftForeArm 12.686340 -0.000000 99.077651
LeftHand -9.771990 -0.000000 -16.560619
LeftHandThumb1 -26.253704 0.000000 33.147579
RightShoulder -22.516785 -65.478126 -9.956925
RightArm 33.045330 -0.641097 54.675841
RightForeArm 10.325441 0.000000 20.876218
RightHand 5.879170 -0.000000 0.755734
RightHandThumb1 -24.326973 -0.000000 -32.862282
LeftUpLeg -33.464393 9.352262 -4.532617
LeftLeg 18.147550 -0.000000 -0.000000
LeftFoot -15.024796 8.067317 -14.160809
LeftToeBase 7.484948 -0.000000 -0.000000
RightUpLeg -33.651736 -7.946565 -9.463642
RightLeg 14.338981 -0.000000 -0.000000
RightFoot -11.646518 0.548680 21.060590
RightToeBase 14.159622 -0.000000 -0.000000
1628
root 3.540309 36.054147 4.141827 -126.496326 -83.948060 156.672548
Spine -31.421357 -14.599975 -2.087706
Head 38.593435 -10.707694 -9.638065
LeftShoulder 7.807389 3.196014 25.386957
LeftArm 103.241264 42.230505 -39.022833
LeftForeArm 12.609164 -0.000000 99.072600
LeftHand -9.813592 -0.000000 -16.691884
LeftHandThumb1 -26.253704 0.000000 33.147579
RightShoulder -22.919070 -65.552456 -9.517048
RightArm 33.177747 -1.928145 54.080411
RightForeArm 9.816603 -0.000000 22.312353
RightHand 5.228584 -0.000000 2.816132
RightHandThumb1 -24.326973 -0.000000 -32.862282
LeftUpLeg -33.430970 9.350596 -4.496635
LeftLeg 18.093725 -0.000000 -0.000000
LeftFoot -14.979389 8.034128 -14.172184
LeftToeBase 7.503314 -0.000000 -0.000000
RightUpLeg -33.600516 -7.915283 -9.446738
RightLeg 14.283788 -0.000000 -0.000000
RightFoot -11.652879 0.476985 21.084464
RightToeBase 14.195280 -0.000000 -0.000000
1629
root 3.551177 36.055894 4.134191 -126.409303 -83.995444 156.543644
Spine -31.328078 -14.546150 -2.148501
Head 38.411573 -10.585754 -9.420781
LeftShoulder 7.724230 3.187339 25.382899
LeftArm 103.135844 42.340749 -39.096660
LeftForeArm 12.564204 -0.000000 99.042187
LeftHand -9.824284 -0.000000 -16.916029
LeftHandThumb1 -26.253704 0.000000 33.147579
RightShoulder -23.418892 -65.649421 -9.016229
RightArm 33.424009 -3.180897 53.523060
RightForeArm 9.395662 -0.000000 23.759387
RightHand 4.771180 0.000000 4.683316
RightHandThumb1 -24.326973 -0.000000 -32.862282
LeftUpLeg -33.386397 9.341658 -4.457279
LeftLeg 18.046603 -0.000000 -0.000000
LeftFoot -14.942488 8.012776 -14.156345
LeftToeBase 7.523262 -0.000000 -0.000000
RightUpLeg -33.542960 -7.878936 -9.440452
RightLeg 14.248936 -0.000000 -0.000000
RightFoot -11.658771 0.414398 21.100620
RightToeBase 14.209123 -0.000000 -0.000000
1630
root 3.557744 36.057695 4.127355 -126.382284 -84.061362 156.408257
Spine -31.135034 -14.494986 -2.297083
Head 38.259481 -10.625960 -9.033204
LeftShoulder 7.571588 3.066441 25.752013
LeftArm 103.112270 42.457583 -38.896082
LeftForeArm 12.609166 -0.000000 99.066421
LeftHand -9.643008 0.000000 -15.682541
LeftHandThumb1 -26.253704 0.000000 33.147579
RightShoulder -23.895104 -65.689883 -8.371986
RightArm 33.600733 -4.414694 52.874970
RightForeArm 9.104084 -0.000000 25.242797
RightHand 4.417277 -0.000000 6.354654
RightHandThumb1 -24.326973 -0.000000 -32.862282
LeftUpLeg -33.268161 9.341189 -4.402682
LeftLeg 17.992658 -0.000000 -0.000000
LeftFoot -14.898865 7.984408 -14.128933
LeftToeBase 7.521722 -0.000000 -0.000000
RightUpLeg -33.408467 -7.885544 -9.410836
RightLeg 14.209304 -0.000000 -0.000000
RightFoot -11.651206 0.386283 21.097207
RightToeBase 14.202930 -0.000000 -0.000000
